<svg width="123" height="68" viewBox="0 0 123 68" fill="none" xmlns="http://www.w3.org/2000/svg">
<path d="M6.44275 46.7643L6.37532 46.7812C5.79352 46.9266 5.22939 47.1353 4.693 47.4035L4.23065 47.6347C3.74672 47.8766 3.30495 48.195 2.92237 48.5776C2.31745 49.1826 1.87667 49.9317 1.64165 50.7542L1.40853 51.5702C1.14006 52.5098 1.09999 53.4999 1.29164 54.4582C1.42952 55.1476 1.6849 55.8082 2.04663 56.411L3 58C4.32539 59.6567 5.89853 61.099 7.66386 62.2759L8 62.5C9.66168 63.497 11.4275 64.3092 13.2659 64.922L13.5 65L16.5 66L19 66.5C20.9966 66.8328 23.0173 67 25.0414 67H26.5H31.4586C33.4827 67 35.5034 66.8328 37.5 66.5L40.5 66L41.246 65.8135C43.4089 65.2728 45.506 64.497 47.5 63.5L47.5746 63.4552C49.1855 62.4887 50.6717 61.3283 52 60L52.0727 59.9273C52.6894 59.3106 53.2437 58.6345 53.7275 57.9088L53.8565 57.7153C54.6132 56.5802 55.1691 55.3235 55.5 54L56 51.5L56.1464 50.4749C56.3819 48.827 56.5 47.1646 56.5 45.5V40.5V36.5V32V28V23C56.5 21.3362 56.3625 19.6752 56.089 18.034L56 17.5L54.9207 12.8231C54.6433 11.621 54.1176 10.4901 53.3774 9.50316C53.1261 9.16814 52.8514 8.85138 52.5553 8.55527L51.5 7.5C50.5065 6.5065 49.3593 5.67966 48.1026 5.05132L48 5L46 4L43.5 3L41.5 2.5L39 2L36 1.5C33.6696 1.16709 31.3185 1 28.9645 1H28H24L20 1.5L17 2L13.5 3L11.749 3.75045C10.5847 4.24941 9.46055 4.83716 8.38642 5.50849L7.84612 5.84617C6.61934 6.61291 5.48356 7.51644 4.46061 8.53939L3.96017 9.03983C3.65378 9.34622 3.36952 9.67398 3.10953 10.0206L2.76847 10.4754C2.26127 11.1516 1.89439 11.9225 1.68937 12.7425C1.5636 13.2456 1.5 13.7622 1.5 14.2808V15V16.3657C1.5 16.787 1.55167 17.2067 1.65385 17.6154L1.67226 17.689C1.88672 18.5469 2.33027 19.3303 2.95551 19.9555C3.63657 20.6366 4.50399 21.1008 5.44844 21.2897L5.88389 21.3768C6.29363 21.4587 6.71046 21.5 7.12831 21.5H9.5H14.1415C14.3753 21.5 14.6038 21.4308 14.7983 21.3011C15.42 20.8867 15.5071 20.0071 14.9787 19.4787L14.5 19L13.8142 18.3142C13.6052 18.1052 13.4175 17.8762 13.2536 17.6303C12.7622 16.8933 12.5 16.0273 12.5 15.1415V15V14.8585C12.5 13.9727 12.7622 13.1067 13.2536 12.3697C13.4175 12.1238 13.6052 11.8948 13.8142 11.6858L13.879 11.621C14.2903 11.2097 14.7653 10.8674 15.2856 10.6072L15.5957 10.4521C16.1959 10.152 16.8334 9.93332 17.4914 9.80173L17.9373 9.71255C18.644 9.57119 19.363 9.5 20.0838 9.5H22.5H25.5C27.4966 9.5 29.4898 9.66496 31.4592 9.9932L31.5 10L35 11C36.6576 11.663 38.2085 12.5668 39.6026 13.682L40 14L41.4616 15.4616C41.8201 15.8201 42.1527 16.2036 42.4568 16.6091C43.1478 17.5303 43.6856 18.5569 44.0498 19.6494L44.0927 19.7782C44.3634 20.5902 44.543 21.4298 44.6282 22.2815L45 26V33V39V40.9586C45 42.9827 44.8328 45.0034 44.5 47L44.2977 47.809C44.0998 48.6006 43.8159 49.3682 43.451 50.098C43.1509 50.6981 42.7975 51.27 42.3949 51.8067L42.3771 51.8306C41.7947 52.6071 41.1165 53.3068 40.3586 53.9132L39 55C37.012 56.3253 34.7973 57.3436 32.5 58L29.5 58.5C27.1696 58.8329 24.8185 59 22.4645 59H22H21.5613C20.5222 59 19.4849 58.9142 18.46 58.7433L17.5762 58.596C17.1927 58.5321 16.8147 58.4382 16.4458 58.3153C15.8181 58.106 15.221 57.814 14.6704 57.447L14.4459 57.2973C14.1494 57.0996 13.8731 56.8731 13.621 56.621L13.3221 56.3221C13.1087 56.1087 12.9312 55.8624 12.7963 55.5926C12.6014 55.2029 12.5 54.7732 12.5 54.3374V54V53C12.5 52.3424 12.6531 51.6938 12.9472 51.1056L13 51L13.1482 50.7035C13.3788 50.2425 13.7256 49.8496 14.1545 49.5637L14.6828 49.2115C14.8884 49.0744 15.0424 48.8727 15.1206 48.6383C15.3252 48.0243 14.9639 47.366 14.3359 47.209L13.5 47L9.5 46.5H8.58979C7.866 46.5 7.14493 46.5888 6.44275 46.7643Z" fill="#8A80BF"/>
<path d="M16.1814 34.7257L16.1583 34.6332C16.0549 34.2197 16.0716 33.7852 16.2064 33.3808C16.3944 32.8168 16.7987 32.3506 17.3304 32.0848L18.2071 31.6464C18.4021 31.5489 18.6038 31.4654 18.8107 31.3964L21.5 30.5L25.9305 29.3924C26.9753 29.1312 28.0387 28.951 29.1112 28.8535L30.8756 28.6931C32.2797 28.5655 33.6954 28.6987 35.0511 29.086L35.464 29.204C36.1517 29.4005 36.8106 29.6864 37.4239 30.0543L38.0311 30.4187C38.6691 30.8014 39.2141 31.3211 39.6267 31.9401L39.7486 32.1229C39.9155 32.3732 40.0482 32.6446 40.1433 32.9299L40.1637 32.9911C40.382 33.646 40.382 34.354 40.1637 35.0089C40.0553 35.3342 39.8951 35.6399 39.6894 35.9142L39.3204 36.4062C38.7786 37.1285 38.1018 37.7389 37.3276 38.2035L37.269 38.2386C36.4315 38.7411 35.5019 39.0712 34.535 39.2093L33.4111 39.3698C32.8045 39.4565 32.1924 39.5 31.5797 39.5H29C27.6717 39.5 26.3484 39.3371 25.0597 39.0149L23 38.5L19 37L17.7195 36.4878C16.9537 36.1815 16.3815 35.526 16.1814 34.7257Z" fill="#8A80BF"/>
<path d="M66.5 45.5V12.3159C66.5 11.4397 66.5622 10.5647 66.6861 9.69731L66.9087 8.13896C66.9694 7.71451 67.0805 7.29881 67.2397 6.90072C67.7295 5.67633 68.6515 4.67424 69.831 4.08449L70.4678 3.76612C71.4754 3.2623 72.5865 3 73.7131 3H115H119.272C119.747 3 120.211 3.14049 120.606 3.40376C121.175 3.78316 121.555 4.38699 121.652 5.06408L121.931 7.01998C121.977 7.33959 122 7.66204 122 7.9849V12L121.785 13.7212C121.596 15.2294 121.153 16.6946 120.473 18.0541L120.198 18.6038C119.736 19.5285 119.127 20.3727 118.396 21.1038L118.17 21.3301C117.398 22.102 116.477 22.7091 115.464 23.1145C114.824 23.3704 114.154 23.5433 113.47 23.6288L112.069 23.8039C111.036 23.933 109.987 23.8292 109 23.5L107.744 23.0812C107.583 23.0278 107.438 22.9379 107.318 22.8185L107.16 22.6602C107.058 22.5576 107 22.4185 107 22.2735C107 22.1013 107.081 21.9392 107.219 21.8359L108.751 20.6864C108.917 20.5623 109.073 20.4266 109.22 20.2803L109.716 19.7836C110.218 19.2819 110.5 18.6014 110.5 17.8918C110.5 17.3129 110.312 16.7497 109.965 16.2866L109.502 15.6693C109.17 15.2263 108.765 14.8431 108.304 14.5359C107.773 14.1821 107.178 13.9356 106.553 13.8105L105 13.5C102.67 13.1671 100.319 13 97.9645 13H94.5L88.5 13.5L81.5 14L80.0213 14.2957C79.3674 14.4265 78.7922 14.8117 78.4223 15.3666C78.1469 15.7796 78 16.2649 78 16.7613V21.5V35V44.5V49.5021C78 49.8328 78.0406 50.1622 78.1208 50.483L78.2188 50.8754C78.3998 51.599 78.8439 52.2293 79.4645 52.643C79.8175 52.8783 80.2164 53.0361 80.6348 53.1058L83 53.5L89 54.5L93.5 55H97.5H104.422C105.46 55 106.483 54.7583 107.412 54.2941L108.024 53.988C108.664 53.6682 109.209 53.1871 109.605 52.5921C109.866 52.2003 110.058 51.7665 110.173 51.3096L110.288 50.8472C110.427 50.2939 110.404 49.7126 110.224 49.1716C110.077 48.7299 109.829 48.3286 109.499 47.9994L109.139 47.6387C109.046 47.5464 108.948 47.4607 108.843 47.3823L107.541 46.4061C107.228 46.1709 107.127 45.7452 107.303 45.3946C107.426 45.1486 107.665 44.9817 107.938 44.9513L111.085 44.6016C111.692 44.5342 112.305 44.5509 112.908 44.6513L113.311 44.7185C114.428 44.9047 115.503 45.2877 116.487 45.8497L117.064 46.1792C118.013 46.7215 118.851 47.4383 119.534 48.2919C120.173 49.091 120.666 49.9969 120.989 50.9677L121.285 51.8562C121.759 53.2761 122 54.7631 122 56.2598V57.5V59.6536C122 60.2169 121.953 60.7792 121.861 61.3349L121.585 62.991C121.529 63.3265 121.402 63.6463 121.214 63.9294C120.768 64.5982 120.017 65 119.213 65H98H86L81.1521 64.6271C80.0535 64.5426 78.9662 64.3475 77.9068 64.0448L77.8399 64.0257C76.6177 63.6765 75.4422 63.1812 74.3386 62.5506C73.1183 61.8533 71.9964 60.9964 71.0026 60.0026L70.5898 59.5898C69.866 58.866 69.2337 58.0562 68.7071 57.1784C68.2371 56.3952 67.8543 55.5628 67.5654 54.6962L67 53C66.6679 51.6717 66.5 50.3076 66.5 48.9384V48V45.5Z" fill="#8A80BF"/>
<path d="M89.5 32.5L87.1413 33.5109C86.5946 33.7452 86.4575 34.4575 86.878 34.878C86.9585 34.9585 87.0545 35.0218 87.1602 35.0641L92 37L94.9415 38.3074C95.9786 38.7682 97.0536 39.1384 98.1545 39.4136L99.4247 39.7312C100.139 39.9097 100.872 40 101.608 40C102.201 40 102.793 39.9414 103.374 39.8251L103.679 39.7641C104.557 39.5886 105.413 39.3166 106.231 38.9531L109.5 37.5L113.105 35.6973C113.364 35.568 113.584 35.3735 113.745 35.133L113.818 35.0231C114.215 34.4282 114.136 33.6361 113.631 33.1306C113.544 33.0438 113.447 32.9681 113.342 32.905L111 31.5L109.82 30.8257C108.282 29.9469 106.621 29.3046 104.892 28.9203L104.287 28.786C103.431 28.5959 102.558 28.5 101.682 28.5C100.566 28.5 99.4557 28.6555 98.3829 28.962L96.5 29.5L93 31L89.5 32.5Z" fill="#8A80BF"/>
<path d="M6.44275 46.7643L6.37532 46.7812C5.79352 46.9266 5.22939 47.1353 4.693 47.4035L4.23065 47.6347C3.74672 47.8766 3.30495 48.195 2.92237 48.5776C2.31745 49.1826 1.87667 49.9317 1.64165 50.7542L1.40853 51.5702C1.14006 52.5098 1.09999 53.4999 1.29164 54.4582C1.42952 55.1476 1.6849 55.8082 2.04663 56.411L3 58C4.32539 59.6567 5.89853 61.099 7.66386 62.2759L8 62.5C9.66168 63.497 11.4275 64.3092 13.2659 64.922L13.5 65L16.5 66L19 66.5C20.9966 66.8328 23.0173 67 25.0414 67H26.5H31.4586C33.4827 67 35.5034 66.8328 37.5 66.5L40.5 66L41.246 65.8135C43.4089 65.2728 45.506 64.497 47.5 63.5L47.5746 63.4552C49.1855 62.4887 50.6717 61.3283 52 60L52.0727 59.9273C52.6894 59.3106 53.2437 58.6345 53.7275 57.9088L53.8565 57.7153C54.6132 56.5802 55.1691 55.3235 55.5 54L56 51.5L56.1464 50.4749C56.3819 48.827 56.5 47.1646 56.5 45.5V40.5V36.5V32V28V23C56.5 21.3362 56.3625 19.6752 56.089 18.034L56 17.5L54.9207 12.8231C54.6433 11.621 54.1176 10.4901 53.3774 9.50316C53.1261 9.16814 52.8514 8.85138 52.5553 8.55527L51.5 7.5C50.5065 6.5065 49.3593 5.67966 48.1026 5.05132L48 5L46 4L43.5 3L41.5 2.5L39 2L36 1.5C33.6696 1.16709 31.3185 1 28.9645 1H28H24L20 1.5L17 2L13.5 3L11.749 3.75045C10.5847 4.24941 9.46055 4.83716 8.38642 5.50849L7.84612 5.84617C6.61934 6.61291 5.48356 7.51644 4.46061 8.53939L3.96017 9.03983C3.65378 9.34622 3.36952 9.67398 3.10953 10.0206L2.76847 10.4754C2.26127 11.1516 1.89439 11.9225 1.68937 12.7425C1.5636 13.2456 1.5 13.7622 1.5 14.2808V15V16.3657C1.5 16.787 1.55167 17.2067 1.65385 17.6154L1.67226 17.689C1.88672 18.5469 2.33027 19.3303 2.95551 19.9555C3.63657 20.6366 4.50399 21.1008 5.44844 21.2897L5.88389 21.3768C6.29363 21.4587 6.71046 21.5 7.12831 21.5H9.5H14.1415C14.3753 21.5 14.6038 21.4308 14.7983 21.3011C15.42 20.8867 15.5071 20.0071 14.9787 19.4787L14.5 19L13.8142 18.3142C13.6052 18.1052 13.4175 17.8762 13.2536 17.6303C12.7622 16.8933 12.5 16.0273 12.5 15.1415V15V14.8585C12.5 13.9727 12.7622 13.1067 13.2536 12.3697C13.4175 12.1238 13.6052 11.8948 13.8142 11.6858L13.879 11.621C14.2903 11.2097 14.7653 10.8674 15.2856 10.6072L15.5957 10.4521C16.1959 10.152 16.8334 9.93332 17.4914 9.80173L17.9373 9.71255C18.644 9.57119 19.363 9.5 20.0838 9.5H22.5H25.5C27.4966 9.5 29.4898 9.66496 31.4592 9.9932L31.5 10L35 11C36.6576 11.663 38.2085 12.5668 39.6026 13.682L40 14L41.4616 15.4616C41.8201 15.8201 42.1527 16.2036 42.4568 16.6091C43.1478 17.5303 43.6856 18.5569 44.0498 19.6494L44.0927 19.7782C44.3634 20.5902 44.543 21.4298 44.6282 22.2815L45 26V33V39V40.9586C45 42.9827 44.8328 45.0034 44.5 47L44.2977 47.809C44.0998 48.6006 43.8159 49.3682 43.451 50.098C43.1509 50.6981 42.7975 51.27 42.3949 51.8067L42.3771 51.8306C41.7947 52.6071 41.1165 53.3068 40.3586 53.9132L39 55C37.012 56.3253 34.7973 57.3436 32.5 58L29.5 58.5C27.1696 58.8329 24.8185 59 22.4645 59H22H21.5613C20.5222 59 19.4849 58.9142 18.46 58.7433L17.5762 58.596C17.1927 58.5321 16.8147 58.4382 16.4458 58.3153C15.8181 58.106 15.221 57.814 14.6704 57.447L14.4459 57.2973C14.1494 57.0996 13.8731 56.8731 13.621 56.621L13.3221 56.3221C13.1087 56.1087 12.9312 55.8624 12.7963 55.5926C12.6014 55.2029 12.5 54.7732 12.5 54.3374V54V53C12.5 52.3424 12.6531 51.6938 12.9472 51.1056L13 51L13.1482 50.7035C13.3788 50.2425 13.7256 49.8496 14.1545 49.5637L14.6828 49.2115C14.8884 49.0744 15.0424 48.8727 15.1206 48.6383C15.3252 48.0243 14.9639 47.366 14.3359 47.209L13.5 47L9.5 46.5H8.58979C7.866 46.5 7.14493 46.5888 6.44275 46.7643Z" stroke="black"/>
<path d="M16.1814 34.7257L16.1583 34.6332C16.0549 34.2197 16.0716 33.7852 16.2064 33.3808C16.3944 32.8168 16.7987 32.3506 17.3304 32.0848L18.2071 31.6464C18.4021 31.5489 18.6038 31.4654 18.8107 31.3964L21.5 30.5L25.9305 29.3924C26.9753 29.1312 28.0387 28.951 29.1112 28.8535L30.8756 28.6931C32.2797 28.5655 33.6954 28.6987 35.0511 29.086L35.464 29.204C36.1517 29.4005 36.8106 29.6864 37.4239 30.0543L38.0311 30.4187C38.6691 30.8014 39.2141 31.3211 39.6267 31.9401L39.7486 32.1229C39.9155 32.3732 40.0482 32.6446 40.1433 32.9299L40.1637 32.9911C40.382 33.646 40.382 34.354 40.1637 35.0089C40.0553 35.3342 39.8951 35.6399 39.6894 35.9142L39.3204 36.4062C38.7786 37.1285 38.1018 37.7389 37.3276 38.2035L37.269 38.2386C36.4315 38.7411 35.5019 39.0712 34.535 39.2093L33.4111 39.3698C32.8045 39.4565 32.1924 39.5 31.5797 39.5H29C27.6717 39.5 26.3484 39.3371 25.0597 39.0149L23 38.5L19 37L17.7195 36.4878C16.9537 36.1815 16.3815 35.526 16.1814 34.7257Z" stroke="black"/>
<path d="M66.5 45.5V12.3159C66.5 11.4397 66.5622 10.5647 66.6861 9.69731L66.9087 8.13896C66.9694 7.71451 67.0805 7.29881 67.2397 6.90072C67.7295 5.67633 68.6515 4.67424 69.831 4.08449L70.4678 3.76612C71.4754 3.2623 72.5865 3 73.7131 3H115H119.272C119.747 3 120.211 3.14049 120.606 3.40376C121.175 3.78316 121.555 4.38699 121.652 5.06408L121.931 7.01998C121.977 7.33959 122 7.66204 122 7.9849V12L121.785 13.7212C121.596 15.2294 121.153 16.6946 120.473 18.0541L120.198 18.6038C119.736 19.5285 119.127 20.3727 118.396 21.1038L118.17 21.3301C117.398 22.102 116.477 22.7091 115.464 23.1145C114.824 23.3704 114.154 23.5433 113.47 23.6288L112.069 23.8039C111.036 23.933 109.987 23.8292 109 23.5L107.744 23.0812C107.583 23.0278 107.438 22.9379 107.318 22.8185L107.16 22.6602C107.058 22.5576 107 22.4185 107 22.2735C107 22.1013 107.081 21.9392 107.219 21.8359L108.751 20.6864C108.917 20.5623 109.073 20.4266 109.22 20.2803L109.716 19.7836C110.218 19.2819 110.5 18.6014 110.5 17.8918C110.5 17.3129 110.312 16.7497 109.965 16.2866L109.502 15.6693C109.17 15.2263 108.765 14.8431 108.304 14.5359C107.773 14.1821 107.178 13.9356 106.553 13.8105L105 13.5C102.67 13.1671 100.319 13 97.9645 13H94.5L88.5 13.5L81.5 14L80.0213 14.2957C79.3674 14.4265 78.7922 14.8117 78.4223 15.3666C78.1469 15.7796 78 16.2649 78 16.7613V21.5V35V44.5V49.5021C78 49.8328 78.0406 50.1622 78.1208 50.483L78.2188 50.8754C78.3998 51.599 78.8439 52.2293 79.4645 52.643C79.8175 52.8783 80.2164 53.0361 80.6348 53.1058L83 53.5L89 54.5L93.5 55H97.5H104.422C105.46 55 106.483 54.7583 107.412 54.2941L108.024 53.988C108.664 53.6682 109.209 53.1871 109.605 52.5921C109.866 52.2003 110.058 51.7665 110.173 51.3096L110.288 50.8472C110.427 50.2939 110.404 49.7126 110.224 49.1716C110.077 48.7299 109.829 48.3286 109.499 47.9994L109.139 47.6387C109.046 47.5464 108.948 47.4607 108.843 47.3823L107.541 46.4061C107.228 46.1709 107.127 45.7452 107.303 45.3946C107.426 45.1486 107.665 44.9817 107.938 44.9513L111.085 44.6016C111.692 44.5342 112.305 44.5509 112.908 44.6513L113.311 44.7185C114.428 44.9047 115.503 45.2877 116.487 45.8497L117.064 46.1792C118.013 46.7215 118.851 47.4383 119.534 48.2919C120.173 49.091 120.666 49.9969 120.989 50.9677L121.285 51.8562C121.759 53.2761 122 54.7631 122 56.2598V57.5V59.6536C122 60.2169 121.953 60.7792 121.861 61.3349L121.585 62.991C121.529 63.3265 121.402 63.6463 121.214 63.9294C120.768 64.5982 120.017 65 119.213 65H98H86L81.1521 64.6271C80.0535 64.5426 78.9662 64.3475 77.9068 64.0448L77.8399 64.0257C76.6177 63.6765 75.4422 63.1812 74.3386 62.5506C73.1183 61.8533 71.9964 60.9964 71.0026 60.0026L70.5898 59.5898C69.866 58.866 69.2337 58.0562 68.7071 57.1784C68.2371 56.3952 67.8543 55.5628 67.5654 54.6962L67 53C66.6679 51.6717 66.5 50.3076 66.5 48.9384V48V45.5Z" stroke="black"/>
<path d="M89.5 32.5L87.1413 33.5109C86.5946 33.7452 86.4575 34.4575 86.878 34.878C86.9585 34.9585 87.0545 35.0218 87.1602 35.0641L92 37L94.9415 38.3074C95.9786 38.7682 97.0536 39.1384 98.1545 39.4136L99.4247 39.7312C100.139 39.9097 100.872 40 101.608 40C102.201 40 102.793 39.9414 103.374 39.8251L103.679 39.7641C104.557 39.5886 105.413 39.3166 106.231 38.9531L109.5 37.5L113.105 35.6973C113.364 35.568 113.584 35.3735 113.745 35.133L113.818 35.0231C114.215 34.4282 114.136 33.6361 113.631 33.1306C113.544 33.0438 113.447 32.9681 113.342 32.905L111 31.5L109.82 30.8257C108.282 29.9469 106.621 29.3046 104.892 28.9203L104.287 28.786C103.431 28.5959 102.558 28.5 101.682 28.5C100.566 28.5 99.4557 28.6555 98.3829 28.962L96.5 29.5L93 31L89.5 32.5Z" stroke="black"/>
</svg>
