<svg width="2057" height="32" viewBox="0 0 2057 32" fill="none" xmlns="http://www.w3.org/2000/svg">
<path d="M42.5 1.5V1V0.5L30 0.5V2.5H27.5V6H25.5V8H23.5V12.5H21V13H19.5V12.5V10H17.5V7H15.5V5H13V2L11 2V0.5L0.5 0.5L0.5 4H2.5L2.5 7H4.5V9.5H6.5L6.5 12.5L9 12.5V15.5H11V17.5H13V21.5H15V24L17 24V27H19.5V30H23.5V26H25.5V23H28V20.5H30V17.5H32L32 14.5H34V10.5H36V8H38.5V5H40.5V1.5L42.5 1.5Z" fill="black" stroke="black"/>
<path d="M129 29V30V31.5L42.5 31.5V29H45V27H46.5V23.5H49V20.5H53V23.5H55.5V25H57.5V27L59.5 27V28H61.5H70V27H72V26H74V24H76.5V22H78.5V11.5H76.5V10H74V8H72V7L70 7V8H68V14.5H70V19.5H68V21H63.5V19.5H61.5V17.5H59.5V14.5H57.5V8H59.5V5H61.5V3H64V2H67.5V0.5L74 0.5V1.5L78.5 1.5V4L80.5 4V6H83V8H84.5V12.5H87V12V8H89V5H91V3.5L93 3.5V3H95V2L97.5 2V0.5L104 0.5V1.5L106 1.5V3H108V4H110V6L112 6V17.5H110V19.5H108V20.5H104V19.5H101.5V14.5H103.5V8H101.5V6.5H99.5V8H97.5V9H95V11.5H93.5V20.5H95.5V24H97.5V26H99.5V27H101.5V28H112V27.5H114.5V26H116.5V23H118.5V21.5H120.5V20.5L123 20.5V23H125V26H127V29H129Z" fill="black" stroke="black"/>
<path d="M171 1.5V1V0.5L158.5 0.5V2.5H156V6H154V8H152V12.5H149.5V13H148V12.5V10H146V7H144V5H141.5V2L139.5 2V0.5L129 0.5V4H131V7H133V9.5H135V12.5L137.5 12.5V15.5H139.5V17.5H141.5V21.5H143.5V24L145.5 24V27H148V30H152V26H154V23H156.5V20.5H158.5V17.5H160.5V14.5H162.5V10.5H164.5V8H167V5H169V1.5L171 1.5Z" fill="black" stroke="black"/>
<path d="M257.5 29V30V31.5L171 31.5V29H173.5V27H175V23.5H177.5V20.5H181.5V23.5H184V25H186V27L188 27V28H190H198.5V27H200.5V26H202.5V24H205V22H207V11.5H205V10H202.5V8H200.5V7L198.5 7V8H196.5V14.5H198.5V19.5H196.5V21H192V19.5H190V17.5H188V14.5H186V8H188V5H190V3H192.5V2H196V0.5L202.5 0.5V1.5L207 1.5V4L209 4V6H211.5V8H213V12.5H215.5V12V8H217.5V5H219.5V3.5L221.5 3.5V3H223.5V2L226 2V0.5L232.5 0.5V1.5L234.5 1.5V3H236.5V4H238.5V6L240.5 6V17.5H238.5V19.5H236.5V20.5H232.5V19.5H230V14.5H232V8H230V6.5H228V8H226V9H223.5V11.5H222V20.5H224V24H226V26H228V27H230V28H240.5V27.5H243V26H245V23H247V21.5H249V20.5L251.5 20.5V23H253.5V26H255.5V29H257.5Z" fill="black" stroke="black"/>
<path d="M299.5 1.5V1V0.5L287 0.5V2.5H284.5V6H282.5V8H280.5V12.5H278V13H276.5V12.5V10H274.5V7H272.5V5H270V2L268 2V0.5L257.5 0.5V4H259.5V7H261.5V9.5H263.5V12.5L266 12.5V15.5H268V17.5H270V21.5H272V24L274 24V27H276.5V30H280.5V26H282.5V23H285V20.5H287V17.5H289V14.5H291V10.5H293V8H295.5V5H297.5V1.5L299.5 1.5Z" fill="black" stroke="black"/>
<path d="M386 29V30V31.5L299.5 31.5V29H302V27H303.5V23.5H306V20.5H310V23.5H312.5V25H314.5V27L316.5 27V28H318.5H327V27H329V26H331V24H333.5V22H335.5V11.5H333.5V10H331V8H329V7L327 7V8H325V14.5H327V19.5H325V21H320.5V19.5H318.5V17.5H316.5V14.5H314.5V8H316.5V5H318.5V3H321V2H324.5V0.5L331 0.5V1.5L335.5 1.5V4L337.5 4V6H340V8H341.5V12.5H344V12V8H346V5H348V3.5L350 3.5V3H352V2L354.5 2V0.5L361 0.5V1.5L363 1.5V3H365V4H367V6L369 6V17.5H367V19.5H365V20.5H361V19.5H358.5V14.5H360.5V8H358.5V6.5H356.5V8H354.5V9H352V11.5H350.5V20.5H352.5V24H354.5V26H356.5V27H358.5V28H369V27.5H371.5V26H373.5V23H375.5V21.5H377.5V20.5L380 20.5V23H382V26H384V29H386Z" fill="black" stroke="black"/>
<path d="M428 1.5V1V0.5L415.5 0.5V2.5H413V6H411V8H409V12.5H406.5V13H405V12.5V10H403V7H401V5H398.5V2L396.5 2V0.5L386 0.5V4H388V7H390V9.5H392V12.5L394.5 12.5V15.5H396.5V17.5H398.5V21.5H400.5V24L402.5 24V27H405V30H409V26H411V23H413.5V20.5H415.5V17.5H417.5V14.5H419.5V10.5H421.5V8H424V5H426V1.5L428 1.5Z" fill="black" stroke="black"/>
<path d="M514.5 29V30V31.5L428 31.5V29H430.5V27H432V23.5H434.5V20.5H438.5V23.5H441V25H443V27L445 27V28H447H455.5V27H457.5V26H459.5V24H462V22H464V11.5H462V10H459.5V8H457.5V7L455.5 7V8H453.5V14.5H455.5V19.5H453.5V21H449V19.5H447V17.5H445V14.5H443V8H445V5H447V3H449.5V2H453V0.5L459.5 0.5V1.5L464 1.5V4L466 4V6H468.5V8H470V12.5H472.5V12V8H474.5V5H476.5V3.5L478.5 3.5V3H480.5V2L483 2V0.5L489.5 0.5V1.5L491.5 1.5V3H493.5V4H495.5V6L497.5 6V17.5H495.5V19.5H493.5V20.5H489.5V19.5H487V14.5H489V8H487V6.5H485V8H483V9H480.5V11.5H479V20.5H481V24H483V26H485V27H487V28H497.5V27.5H500V26H502V23H504V21.5H506V20.5L508.5 20.5V23H510.5V26H512.5V29H514.5Z" fill="black" stroke="black"/>
<path d="M556.5 1.5V1V0.5L544 0.5V2.5H541.5V6H539.5V8H537.5V12.5H535V13H533.5V12.5V10H531.5V7H529.5V5H527V2L525 2V0.5L514.5 0.5V4H516.5V7H518.5V9.5H520.5V12.5L523 12.5V15.5H525V17.5H527V21.5H529V24L531 24V27H533.5V30H537.5V26H539.5V23H542V20.5H544V17.5H546V14.5H548V10.5H550V8H552.5V5H554.5V1.5L556.5 1.5Z" fill="black" stroke="black"/>
<path d="M643 29V30V31.5L556.5 31.5V29H559V27H560.5V23.5H563V20.5H567V23.5H569.5V25H571.5V27L573.5 27V28H575.5H584V27H586V26H588V24H590.5V22H592.5V11.5H590.5V10H588V8H586V7L584 7V8H582V14.5H584V19.5H582V21H577.5V19.5H575.5V17.5H573.5V14.5H571.5V8H573.5V5H575.5V3H578V2H581.5V0.5L588 0.5V1.5L592.5 1.5V4L594.5 4V6H597V8H598.5V12.5H601V12V8H603V5H605V3.5L607 3.5V3H609V2L611.5 2V0.5L618 0.5V1.5L620 1.5V3H622V4H624V6L626 6V17.5H624V19.5H622V20.5H618V19.5H615.5V14.5H617.5V8H615.5V6.5H613.5V8H611.5V9H609V11.5H607.5V20.5H609.5V24H611.5V26H613.5V27H615.5V28H626V27.5H628.5V26H630.5V23H632.5V21.5H634.5V20.5L637 20.5V23H639V26H641V29H643Z" fill="black" stroke="black"/>
<path d="M685 1.5V1V0.5L672.5 0.5V2.5H670V6H668V8H666V12.5H663.5V13H662V12.5V10H660V7H658V5H655.5V2L653.5 2V0.5L643 0.5V4H645V7H647V9.5H649V12.5L651.5 12.5V15.5H653.5V17.5H655.5V21.5H657.5V24L659.5 24V27H662V30H666V26H668V23H670.5V20.5H672.5V17.5H674.5V14.5H676.5V10.5H678.5V8H681V5H683V1.5L685 1.5Z" fill="black" stroke="black"/>
<path d="M771.5 29V30V31.5L685 31.5V29H687.5V27H689V23.5H691.5V20.5H695.5V23.5H698V25H700V27L702 27V28H704H712.5V27H714.5V26H716.5V24H719V22H721V11.5H719V10H716.5V8H714.5V7L712.5 7V8H710.5V14.5H712.5V19.5H710.5V21H706V19.5H704V17.5H702V14.5H700V8H702V5H704V3H706.5V2H710V0.5L716.5 0.5V1.5L721 1.5V4L723 4V6H725.5V8H727V12.5H729.5V12V8H731.5V5H733.5V3.5L735.5 3.5V3H737.5V2L740 2V0.5L746.5 0.5V1.5L748.5 1.5V3H750.5V4H752.5V6L754.5 6V17.5H752.5V19.5H750.5V20.5H746.5V19.5H744V14.5H746V8H744V6.5H742V8H740V9H737.5V11.5H736V20.5H738V24H740V26H742V27H744V28H754.5V27.5H757V26H759V23H761V21.5H763V20.5L765.5 20.5V23H767.5V26H769.5V29H771.5Z" fill="black" stroke="black"/>
<path d="M813.5 1.5V1V0.5L801 0.5V2.5H798.5V6H796.5V8H794.5V12.5H792V13H790.5V12.5V10H788.5V7H786.5V5H784V2L782 2V0.5L771.5 0.5V4H773.5V7H775.5V9.5H777.5V12.5L780 12.5V15.5H782V17.5H784V21.5H786V24L788 24V27H790.5V30H794.5V26H796.5V23H799V20.5H801V17.5H803V14.5H805V10.5H807V8H809.5V5H811.5V1.5L813.5 1.5Z" fill="black" stroke="black"/>
<path d="M900 29V30V31.5L813.5 31.5V29H816V27H817.5V23.5H820V20.5H824V23.5H826.5V25H828.5V27L830.5 27V28H832.5H841V27H843V26H845V24H847.5V22H849.5V11.5H847.5V10H845V8H843V7L841 7V8H839V14.5H841V19.5H839V21H834.5V19.5H832.5V17.5H830.5V14.5H828.5V8H830.5V5H832.5V3H835V2H838.5V0.5L845 0.5V1.5L849.5 1.5V4L851.5 4V6H854V8H855.5V12.5H858V12V8H860V5H862V3.5L864 3.5V3H866V2L868.5 2V0.5L875 0.5V1.5L877 1.5V3H879V4H881V6L883 6V17.5H881V19.5H879V20.5H875V19.5H872.5V14.5H874.5V8H872.5V6.5H870.5V8H868.5V9H866V11.5H864.5V20.5H866.5V24H868.5V26H870.5V27H872.5V28H883V27.5H885.5V26H887.5V23H889.5V21.5H891.5V20.5L894 20.5V23H896V26H898V29H900Z" fill="black" stroke="black"/>
<path d="M942 1.5V1V0.5L929.5 0.5V2.5H927V6H925V8H923V12.5H920.5V13H919V12.5V10H917V7H915V5H912.5V2L910.5 2V0.5L900 0.5V4H902V7H904V9.5H906V12.5L908.5 12.5V15.5H910.5V17.5H912.5V21.5H914.5V24L916.5 24V27H919V30H923V26H925V23H927.5V20.5H929.5V17.5H931.5V14.5H933.5V10.5H935.5V8H938V5H940V1.5L942 1.5Z" fill="black" stroke="black"/>
<path d="M1028.5 29V30V31.5L942 31.5V29H944.5V27H946V23.5H948.5V20.5H952.5V23.5H955V25H957V27L959 27V28H961H969.5V27H971.5V26H973.5V24H976V22H978V11.5H976V10H973.5V8H971.5V7L969.5 7V8H967.5V14.5H969.5V19.5H967.5V21H963V19.5H961V17.5H959V14.5H957V8H959V5H961V3H963.5V2H967V0.5L973.5 0.5V1.5L978 1.5V4L980 4V6H982.5V8H984V12.5H986.5V12V8H988.5V5H990.5V3.5L992.5 3.5V3H994.5V2L997 2V0.5L1003.5 0.5V1.5L1005.5 1.5V3H1007.5V4H1009.5V6L1011.5 6V17.5H1009.5V19.5H1007.5V20.5H1003.5V19.5H1001V14.5H1003V8H1001V6.5H999V8H997V9H994.5V11.5H993V20.5H995V24H997V26H999V27H1001V28H1011.5V27.5H1014V26H1016V23H1018V21.5H1020V20.5L1022.5 20.5V23H1024.5V26H1026.5V29H1028.5Z" fill="black" stroke="black"/>
<path d="M1070.5 1.5V1V0.5L1058 0.5V2.5H1055.5V6H1053.5V8H1051.5V12.5H1049V13H1047.5V12.5V10H1045.5V7H1043.5V5H1041V2L1039 2V0.5L1028.5 0.5V4H1030.5V7H1032.5V9.5H1034.5V12.5L1037 12.5V15.5H1039V17.5H1041V21.5H1043V24L1045 24V27H1047.5V30H1051.5V26H1053.5V23H1056V20.5H1058V17.5H1060V14.5H1062V10.5H1064V8H1066.5V5H1068.5V1.5L1070.5 1.5Z" fill="black" stroke="black"/>
<path d="M1157 29V30V31.5L1070.5 31.5V29H1073V27H1074.5V23.5H1077V20.5H1081V23.5H1083.5V25H1085.5V27L1087.5 27V28H1089.5H1098V27H1100V26H1102V24H1104.5V22H1106.5V11.5H1104.5V10H1102V8H1100V7L1098 7V8H1096V14.5H1098V19.5H1096V21H1091.5V19.5H1089.5V17.5H1087.5V14.5H1085.5V8H1087.5V5H1089.5V3H1092V2H1095.5V0.5L1102 0.5V1.5L1106.5 1.5V4L1108.5 4V6H1111V8H1112.5V12.5H1115V12V8H1117V5H1119V3.5L1121 3.5V3H1123V2L1125.5 2V0.5L1132 0.5V1.5L1134 1.5V3H1136V4H1138V6L1140 6V17.5H1138V19.5H1136V20.5H1132V19.5H1129.5V14.5H1131.5V8H1129.5V6.5H1127.5V8H1125.5V9H1123V11.5H1121.5V20.5H1123.5V24H1125.5V26H1127.5V27H1129.5V28H1140V27.5H1142.5V26H1144.5V23H1146.5V21.5H1148.5V20.5L1151 20.5V23H1153V26H1155V29H1157Z" fill="black" stroke="black"/>
<path d="M1199 1.5V1V0.5L1186.5 0.5V2.5H1184V6H1182V8H1180V12.5H1177.5V13H1176V12.5V10H1174V7H1172V5H1169.5V2L1167.5 2V0.5L1157 0.5V4H1159V7H1161V9.5H1163V12.5L1165.5 12.5V15.5H1167.5V17.5H1169.5V21.5H1171.5V24L1173.5 24V27H1176V30H1180V26H1182V23H1184.5V20.5H1186.5V17.5H1188.5V14.5H1190.5V10.5H1192.5V8H1195V5H1197V1.5L1199 1.5Z" fill="black" stroke="black"/>
<path d="M1285.5 29V30V31.5L1199 31.5V29H1201.5V27H1203V23.5H1205.5V20.5H1209.5V23.5H1212V25H1214V27L1216 27V28H1218H1226.5V27H1228.5V26H1230.5V24H1233V22H1235V11.5H1233V10H1230.5V8H1228.5V7L1226.5 7V8H1224.5V14.5H1226.5V19.5H1224.5V21H1220V19.5H1218V17.5H1216V14.5H1214V8H1216V5H1218V3H1220.5V2H1224V0.5L1230.5 0.5V1.5L1235 1.5V4L1237 4V6H1239.5V8H1241V12.5H1243.5V12V8H1245.5V5H1247.5V3.5L1249.5 3.5V3H1251.5V2L1254 2V0.5L1260.5 0.5V1.5L1262.5 1.5V3H1264.5V4H1266.5V6L1268.5 6V17.5H1266.5V19.5H1264.5V20.5H1260.5V19.5H1258V14.5H1260V8H1258V6.5H1256V8H1254V9H1251.5V11.5H1250V20.5H1252V24H1254V26H1256V27H1258V28H1268.5V27.5H1271V26H1273V23H1275V21.5H1277V20.5L1279.5 20.5V23H1281.5V26H1283.5V29H1285.5Z" fill="black" stroke="black"/>
<path d="M1327.5 1.5V1V0.5L1315 0.5V2.5H1312.5V6H1310.5V8H1308.5V12.5H1306V13H1304.5V12.5V10H1302.5V7H1300.5V5H1298V2L1296 2V0.5L1285.5 0.5V4H1287.5V7H1289.5V9.5H1291.5V12.5L1294 12.5V15.5H1296V17.5H1298V21.5H1300V24L1302 24V27H1304.5V30H1308.5V26H1310.5V23H1313V20.5H1315V17.5H1317V14.5H1319V10.5H1321V8H1323.5V5H1325.5V1.5L1327.5 1.5Z" fill="black" stroke="black"/>
<path d="M1414 29V30V31.5L1327.5 31.5V29H1330V27H1331.5V23.5H1334V20.5H1338V23.5H1340.5V25H1342.5V27L1344.5 27V28H1346.5H1355V27H1357V26H1359V24H1361.5V22H1363.5V11.5H1361.5V10H1359V8H1357V7L1355 7V8H1353V14.5H1355V19.5H1353V21H1348.5V19.5H1346.5V17.5H1344.5V14.5H1342.5V8H1344.5V5H1346.5V3H1349V2H1352.5V0.5L1359 0.5V1.5L1363.5 1.5V4L1365.5 4V6H1368V8H1369.5V12.5H1372V12V8H1374V5H1376V3.5L1378 3.5V3H1380V2L1382.5 2V0.5L1389 0.5V1.5L1391 1.5V3H1393V4H1395V6L1397 6V17.5H1395V19.5H1393V20.5H1389V19.5H1386.5V14.5H1388.5V8H1386.5V6.5H1384.5V8H1382.5V9H1380V11.5H1378.5V20.5H1380.5V24H1382.5V26H1384.5V27H1386.5V28H1397V27.5H1399.5V26H1401.5V23H1403.5V21.5H1405.5V20.5L1408 20.5V23H1410V26H1412V29H1414Z" fill="black" stroke="black"/>
<path d="M1456 1.5V1V0.5L1443.5 0.5V2.5H1441V6H1439V8H1437V12.5H1434.5V13H1433V12.5V10H1431V7H1429V5H1426.5V2L1424.5 2V0.5L1414 0.5V4H1416V7H1418V9.5H1420V12.5L1422.5 12.5V15.5H1424.5V17.5H1426.5V21.5H1428.5V24L1430.5 24V27H1433V30H1437V26H1439V23H1441.5V20.5H1443.5V17.5H1445.5V14.5H1447.5V10.5H1449.5V8H1452V5H1454V1.5L1456 1.5Z" fill="black" stroke="black"/>
<path d="M1542.5 29V30V31.5L1456 31.5V29H1458.5V27H1460V23.5H1462.5V20.5H1466.5V23.5H1469V25H1471V27L1473 27V28H1475H1483.5V27H1485.5V26H1487.5V24H1490V22H1492V11.5H1490V10H1487.5V8H1485.5V7L1483.5 7V8H1481.5V14.5H1483.5V19.5H1481.5V21H1477V19.5H1475V17.5H1473V14.5H1471V8H1473V5H1475V3H1477.5V2H1481V0.5L1487.5 0.5V1.5L1492 1.5V4L1494 4V6H1496.5V8H1498V12.5H1500.5V12V8H1502.5V5H1504.5V3.5L1506.5 3.5V3H1508.5V2L1511 2V0.5L1517.5 0.5V1.5L1519.5 1.5V3H1521.5V4H1523.5V6L1525.5 6V17.5H1523.5V19.5H1521.5V20.5H1517.5V19.5H1515V14.5H1517V8H1515V6.5H1513V8H1511V9H1508.5V11.5H1507V20.5H1509V24H1511V26H1513V27H1515V28H1525.5V27.5H1528V26H1530V23H1532V21.5H1534V20.5L1536.5 20.5V23H1538.5V26H1540.5V29H1542.5Z" fill="black" stroke="black"/>
<path d="M1584.5 1.5V1V0.5L1572 0.5V2.5H1569.5V6H1567.5V8H1565.5V12.5H1563V13H1561.5V12.5V10H1559.5V7H1557.5V5H1555V2L1553 2V0.5L1542.5 0.5V4H1544.5V7H1546.5V9.5H1548.5V12.5L1551 12.5V15.5H1553V17.5H1555V21.5H1557V24L1559 24V27H1561.5V30H1565.5V26H1567.5V23H1570V20.5H1572V17.5H1574V14.5H1576V10.5H1578V8H1580.5V5H1582.5V1.5L1584.5 1.5Z" fill="black" stroke="black"/>
<path d="M1671 29V30V31.5L1584.5 31.5V29H1587V27H1588.5V23.5H1591V20.5H1595V23.5H1597.5V25H1599.5V27L1601.5 27V28H1603.5H1612V27H1614V26H1616V24H1618.5V22H1620.5V11.5H1618.5V10H1616V8H1614V7L1612 7V8H1610V14.5H1612V19.5H1610V21H1605.5V19.5H1603.5V17.5H1601.5V14.5H1599.5V8H1601.5V5H1603.5V3H1606V2H1609.5V0.5L1616 0.5V1.5L1620.5 1.5V4L1622.5 4V6H1625V8H1626.5V12.5H1629V12V8H1631V5H1633V3.5L1635 3.5V3H1637V2L1639.5 2V0.5L1646 0.5V1.5L1648 1.5V3H1650V4H1652V6L1654 6V17.5H1652V19.5H1650V20.5H1646V19.5H1643.5V14.5H1645.5V8H1643.5V6.5H1641.5V8H1639.5V9H1637V11.5H1635.5V20.5H1637.5V24H1639.5V26H1641.5V27H1643.5V28H1654V27.5H1656.5V26H1658.5V23H1660.5V21.5H1662.5V20.5L1665 20.5V23H1667V26H1669V29H1671Z" fill="black" stroke="black"/>
<path d="M1713 1.5V1V0.5L1700.5 0.5V2.5H1698V6H1696V8H1694V12.5H1691.5V13H1690V12.5V10H1688V7H1686V5H1683.5V2L1681.5 2V0.5L1671 0.5V4H1673V7H1675V9.5H1677V12.5L1679.5 12.5V15.5H1681.5V17.5H1683.5V21.5H1685.5V24L1687.5 24V27H1690V30H1694V26H1696V23H1698.5V20.5H1700.5V17.5H1702.5V14.5H1704.5V10.5H1706.5V8H1709V5H1711V1.5L1713 1.5Z" fill="black" stroke="black"/>
<path d="M1799.5 29V30V31.5L1713 31.5V29H1715.5V27H1717V23.5H1719.5V20.5H1723.5V23.5H1726V25H1728V27L1730 27V28H1732H1740.5V27H1742.5V26H1744.5V24H1747V22H1749V11.5H1747V10H1744.5V8H1742.5V7L1740.5 7V8H1738.5V14.5H1740.5V19.5H1738.5V21H1734V19.5H1732V17.5H1730V14.5H1728V8H1730V5H1732V3H1734.5V2H1738V0.5L1744.5 0.5V1.5L1749 1.5V4L1751 4V6H1753.5V8H1755V12.5H1757.5V12V8H1759.5V5H1761.5V3.5L1763.5 3.5V3H1765.5V2L1768 2V0.5L1774.5 0.5V1.5L1776.5 1.5V3H1778.5V4H1780.5V6L1782.5 6V17.5H1780.5V19.5H1778.5V20.5H1774.5V19.5H1772V14.5H1774V8H1772V6.5H1770V8H1768V9H1765.5V11.5H1764V20.5H1766V24H1768V26H1770V27H1772V28H1782.5V27.5H1785V26H1787V23H1789V21.5H1791V20.5L1793.5 20.5V23H1795.5V26H1797.5V29H1799.5Z" fill="black" stroke="black"/>
<path d="M1841.5 1.5V1V0.5L1829 0.5V2.5H1826.5V6H1824.5V8H1822.5V12.5H1820V13H1818.5V12.5V10H1816.5V7H1814.5V5H1812V2L1810 2V0.5L1799.5 0.5V4H1801.5V7H1803.5V9.5H1805.5V12.5L1808 12.5V15.5H1810V17.5H1812V21.5H1814V24L1816 24V27H1818.5V30H1822.5V26H1824.5V23H1827V20.5H1829V17.5H1831V14.5H1833V10.5H1835V8H1837.5V5H1839.5V1.5L1841.5 1.5Z" fill="black" stroke="black"/>
<path d="M1928 29V30V31.5L1841.5 31.5V29H1844V27H1845.5V23.5H1848V20.5H1852V23.5H1854.5V25H1856.5V27L1858.5 27V28H1860.5H1869V27H1871V26H1873V24H1875.5V22H1877.5V11.5H1875.5V10H1873V8H1871V7L1869 7V8H1867V14.5H1869V19.5H1867V21H1862.5V19.5H1860.5V17.5H1858.5V14.5H1856.5V8H1858.5V5H1860.5V3H1863V2H1866.5V0.5L1873 0.5V1.5L1877.5 1.5V4L1879.5 4V6H1882V8H1883.5V12.5H1886V12V8H1888V5H1890V3.5L1892 3.5V3H1894V2L1896.5 2V0.5L1903 0.5V1.5L1905 1.5V3H1907V4H1909V6L1911 6V17.5H1909V19.5H1907V20.5H1903V19.5H1900.5V14.5H1902.5V8H1900.5V6.5H1898.5V8H1896.5V9H1894V11.5H1892.5V20.5H1894.5V24H1896.5V26H1898.5V27H1900.5V28H1911V27.5H1913.5V26H1915.5V23H1917.5V21.5H1919.5V20.5L1922 20.5V23H1924V26H1926V29H1928Z" fill="black" stroke="black"/>
<path d="M1970 1.5V1V0.5L1957.5 0.5V2.5H1955V6H1953V8H1951V12.5H1948.5V13H1947V12.5V10H1945V7H1943V5H1940.5V2L1938.5 2V0.5L1928 0.5V4H1930V7H1932V9.5H1934V12.5L1936.5 12.5V15.5H1938.5V17.5H1940.5V21.5H1942.5V24L1944.5 24V27H1947V30H1951V26H1953V23H1955.5V20.5H1957.5V17.5H1959.5V14.5H1961.5V10.5H1963.5V8H1966V5H1968V1.5L1970 1.5Z" fill="black" stroke="black"/>
<path d="M2056.5 29V30V31.5L1970 31.5V29H1972.5V27H1974V23.5H1976.5V20.5H1980.5V23.5H1983V25H1985V27L1987 27V28H1989H1997.5V27H1999.5V26H2001.5V24H2004V22H2006V11.5H2004V10H2001.5V8H1999.5V7L1997.5 7V8H1995.5V14.5H1997.5V19.5H1995.5V21H1991V19.5H1989V17.5H1987V14.5H1985V8H1987V5H1989V3H1991.5V2H1995V0.5L2001.5 0.5V1.5L2006 1.5V4L2008 4V6H2010.5V8H2012V12.5H2014.5V12V8H2016.5V5H2018.5V3.5L2020.5 3.5V3H2022.5V2L2025 2V0.5L2031.5 0.5V1.5L2033.5 1.5V3H2035.5V4H2037.5V6L2039.5 6V17.5H2037.5V19.5H2035.5V20.5H2031.5V19.5H2029V14.5H2031V8H2029V6.5H2027V8H2025V9H2022.5V11.5H2021V20.5H2023V24H2025V26H2027V27H2029V28H2039.5V27.5H2042V26H2044V23H2046V21.5H2048V20.5L2050.5 20.5V23H2052.5V26H2054.5V29H2056.5Z" fill="black" stroke="black"/>
</svg>
